<mxfile host="app.diagrams.net" agent="Mozilla/5.0 (Windows NT 10.0; Win64; x64) AppleWebKit/537.36 (KHTML, like Gecko) Chrome/129.0.0.0 Safari/537.36" version="24.7.17">
  <diagram name="Página-1" id="2tQ__xtrfGNBeRYooEtT">
    <mxGraphModel dx="3847" dy="743" grid="1" gridSize="10" guides="0" tooltips="1" connect="1" arrows="1" fold="1" page="1" pageScale="1" pageWidth="827" pageHeight="1169" math="0" shadow="0">
      <root>
        <mxCell id="0" />
        <mxCell id="1" parent="0" />
        <mxCell id="3fxkVm-HvaguE0B5Jp1c-1" value="Selección de sede" style="rounded=1;whiteSpace=wrap;html=1;" parent="1" vertex="1">
          <mxGeometry x="-340" y="40" width="210" height="60" as="geometry" />
        </mxCell>
        <mxCell id="3fxkVm-HvaguE0B5Jp1c-13" value="" style="edgeStyle=orthogonalEdgeStyle;rounded=0;orthogonalLoop=1;jettySize=auto;html=1;" parent="1" source="3fxkVm-HvaguE0B5Jp1c-2" edge="1">
          <mxGeometry relative="1" as="geometry">
            <mxPoint x="-480" y="290" as="targetPoint" />
          </mxGeometry>
        </mxCell>
        <mxCell id="3fxkVm-HvaguE0B5Jp1c-2" value="Sede Bello" style="rounded=0;whiteSpace=wrap;html=1;" parent="1" vertex="1">
          <mxGeometry x="-570" y="160" width="180" height="60" as="geometry" />
        </mxCell>
        <mxCell id="3fxkVm-HvaguE0B5Jp1c-11" value="" style="edgeStyle=orthogonalEdgeStyle;rounded=0;orthogonalLoop=1;jettySize=auto;html=1;" parent="1" source="3fxkVm-HvaguE0B5Jp1c-3" target="3fxkVm-HvaguE0B5Jp1c-10" edge="1">
          <mxGeometry relative="1" as="geometry" />
        </mxCell>
        <mxCell id="3fxkVm-HvaguE0B5Jp1c-3" value="Otras sedes" style="rounded=0;whiteSpace=wrap;html=1;" parent="1" vertex="1">
          <mxGeometry x="-110" y="160" width="190" height="60" as="geometry" />
        </mxCell>
        <mxCell id="3fxkVm-HvaguE0B5Jp1c-6" style="edgeStyle=orthogonalEdgeStyle;rounded=0;orthogonalLoop=1;jettySize=auto;html=1;exitX=1;exitY=0.5;exitDx=0;exitDy=0;entryX=0.295;entryY=1;entryDx=0;entryDy=0;entryPerimeter=0;" parent="1" source="3fxkVm-HvaguE0B5Jp1c-2" target="3fxkVm-HvaguE0B5Jp1c-1" edge="1">
          <mxGeometry relative="1" as="geometry" />
        </mxCell>
        <mxCell id="3fxkVm-HvaguE0B5Jp1c-7" style="edgeStyle=orthogonalEdgeStyle;rounded=0;orthogonalLoop=1;jettySize=auto;html=1;exitX=0;exitY=0.5;exitDx=0;exitDy=0;entryX=0.638;entryY=1;entryDx=0;entryDy=0;entryPerimeter=0;" parent="1" source="3fxkVm-HvaguE0B5Jp1c-3" target="3fxkVm-HvaguE0B5Jp1c-1" edge="1">
          <mxGeometry relative="1" as="geometry" />
        </mxCell>
        <mxCell id="3fxkVm-HvaguE0B5Jp1c-10" value="Remite&amp;nbsp; al usuario&amp;nbsp; al link de PQRSF general" style="ellipse;whiteSpace=wrap;html=1;rounded=0;" parent="1" vertex="1">
          <mxGeometry x="180" y="330" width="140" height="120" as="geometry" />
        </mxCell>
        <mxCell id="3fxkVm-HvaguE0B5Jp1c-45" style="edgeStyle=orthogonalEdgeStyle;rounded=0;orthogonalLoop=1;jettySize=auto;html=1;exitX=0;exitY=0.5;exitDx=0;exitDy=0;entryX=0.5;entryY=0;entryDx=0;entryDy=0;" parent="1" source="3fxkVm-HvaguE0B5Jp1c-14" target="3fxkVm-HvaguE0B5Jp1c-16" edge="1">
          <mxGeometry relative="1" as="geometry" />
        </mxCell>
        <mxCell id="3fxkVm-HvaguE0B5Jp1c-46" style="edgeStyle=orthogonalEdgeStyle;rounded=0;orthogonalLoop=1;jettySize=auto;html=1;exitX=1;exitY=0.5;exitDx=0;exitDy=0;entryX=0.5;entryY=0;entryDx=0;entryDy=0;" parent="1" source="3fxkVm-HvaguE0B5Jp1c-14" target="3fxkVm-HvaguE0B5Jp1c-17" edge="1">
          <mxGeometry relative="1" as="geometry" />
        </mxCell>
        <mxCell id="3fxkVm-HvaguE0B5Jp1c-14" value="Seleccione su tipo de usuario" style="ellipse;whiteSpace=wrap;html=1;rounded=0;" parent="1" vertex="1">
          <mxGeometry x="-530" y="300" width="100" height="110" as="geometry" />
        </mxCell>
        <mxCell id="3fxkVm-HvaguE0B5Jp1c-48" style="edgeStyle=orthogonalEdgeStyle;rounded=0;orthogonalLoop=1;jettySize=auto;html=1;exitX=0.5;exitY=1;exitDx=0;exitDy=0;entryX=0.5;entryY=0;entryDx=0;entryDy=0;" parent="1" source="3fxkVm-HvaguE0B5Jp1c-16" target="3fxkVm-HvaguE0B5Jp1c-47" edge="1">
          <mxGeometry relative="1" as="geometry" />
        </mxCell>
        <mxCell id="3fxkVm-HvaguE0B5Jp1c-16" value="otros" style="rounded=0;whiteSpace=wrap;html=1;" parent="1" vertex="1">
          <mxGeometry x="-800" y="450" width="120" height="60" as="geometry" />
        </mxCell>
        <mxCell id="3fxkVm-HvaguE0B5Jp1c-19" value="" style="edgeStyle=orthogonalEdgeStyle;rounded=0;orthogonalLoop=1;jettySize=auto;html=1;" parent="1" source="3fxkVm-HvaguE0B5Jp1c-17" target="3fxkVm-HvaguE0B5Jp1c-18" edge="1">
          <mxGeometry relative="1" as="geometry" />
        </mxCell>
        <mxCell id="3fxkVm-HvaguE0B5Jp1c-17" value="Administrador" style="rounded=0;whiteSpace=wrap;html=1;" parent="1" vertex="1">
          <mxGeometry x="-140" y="450" width="120" height="60" as="geometry" />
        </mxCell>
        <mxCell id="3fxkVm-HvaguE0B5Jp1c-21" value="" style="edgeStyle=orthogonalEdgeStyle;rounded=0;orthogonalLoop=1;jettySize=auto;html=1;" parent="1" source="3fxkVm-HvaguE0B5Jp1c-18" target="3fxkVm-HvaguE0B5Jp1c-20" edge="1">
          <mxGeometry relative="1" as="geometry" />
        </mxCell>
        <mxCell id="3fxkVm-HvaguE0B5Jp1c-18" value="inicio de sesión" style="whiteSpace=wrap;html=1;rounded=0;" parent="1" vertex="1">
          <mxGeometry x="-187.5" y="610" width="120" height="60" as="geometry" />
        </mxCell>
        <mxCell id="3fxkVm-HvaguE0B5Jp1c-27" value="" style="edgeStyle=orthogonalEdgeStyle;rounded=0;orthogonalLoop=1;jettySize=auto;html=1;" parent="1" source="3fxkVm-HvaguE0B5Jp1c-20" target="3fxkVm-HvaguE0B5Jp1c-26" edge="1">
          <mxGeometry relative="1" as="geometry" />
        </mxCell>
        <mxCell id="3fxkVm-HvaguE0B5Jp1c-31" style="edgeStyle=orthogonalEdgeStyle;rounded=0;orthogonalLoop=1;jettySize=auto;html=1;exitX=1;exitY=0.5;exitDx=0;exitDy=0;" parent="1" source="3fxkVm-HvaguE0B5Jp1c-20" target="3fxkVm-HvaguE0B5Jp1c-29" edge="1">
          <mxGeometry relative="1" as="geometry" />
        </mxCell>
        <mxCell id="3fxkVm-HvaguE0B5Jp1c-20" value="Inicio de sesión exitoso ?" style="rhombus;whiteSpace=wrap;html=1;rounded=0;" parent="1" vertex="1">
          <mxGeometry x="-182.5" y="750" width="110" height="120" as="geometry" />
        </mxCell>
        <mxCell id="3fxkVm-HvaguE0B5Jp1c-28" style="edgeStyle=orthogonalEdgeStyle;rounded=0;orthogonalLoop=1;jettySize=auto;html=1;exitX=0.5;exitY=0;exitDx=0;exitDy=0;entryX=0.5;entryY=1;entryDx=0;entryDy=0;" parent="1" source="3fxkVm-HvaguE0B5Jp1c-22" target="3fxkVm-HvaguE0B5Jp1c-26" edge="1">
          <mxGeometry relative="1" as="geometry" />
        </mxCell>
        <mxCell id="3fxkVm-HvaguE0B5Jp1c-36" value="" style="edgeStyle=orthogonalEdgeStyle;rounded=0;orthogonalLoop=1;jettySize=auto;html=1;" parent="1" source="3fxkVm-HvaguE0B5Jp1c-22" target="3fxkVm-HvaguE0B5Jp1c-35" edge="1">
          <mxGeometry relative="1" as="geometry" />
        </mxCell>
        <mxCell id="3fxkVm-HvaguE0B5Jp1c-42" style="edgeStyle=orthogonalEdgeStyle;rounded=0;orthogonalLoop=1;jettySize=auto;html=1;exitX=0.75;exitY=1;exitDx=0;exitDy=0;entryX=0;entryY=0.75;entryDx=0;entryDy=0;" parent="1" source="3fxkVm-HvaguE0B5Jp1c-22" target="3fxkVm-HvaguE0B5Jp1c-37" edge="1">
          <mxGeometry relative="1" as="geometry" />
        </mxCell>
        <mxCell id="3fxkVm-HvaguE0B5Jp1c-22" value="Seleccione su tarea" style="whiteSpace=wrap;html=1;rounded=0;" parent="1" vertex="1">
          <mxGeometry x="-187.5" y="1040" width="120" height="60" as="geometry" />
        </mxCell>
        <mxCell id="3fxkVm-HvaguE0B5Jp1c-26" value="si" style="ellipse;whiteSpace=wrap;html=1;rounded=0;" parent="1" vertex="1">
          <mxGeometry x="-167.5" y="900" width="80" height="70" as="geometry" />
        </mxCell>
        <mxCell id="3fxkVm-HvaguE0B5Jp1c-33" style="edgeStyle=orthogonalEdgeStyle;rounded=0;orthogonalLoop=1;jettySize=auto;html=1;exitX=0.5;exitY=0;exitDx=0;exitDy=0;entryX=0.5;entryY=1;entryDx=0;entryDy=0;" parent="1" source="3fxkVm-HvaguE0B5Jp1c-29" target="3fxkVm-HvaguE0B5Jp1c-32" edge="1">
          <mxGeometry relative="1" as="geometry" />
        </mxCell>
        <mxCell id="3fxkVm-HvaguE0B5Jp1c-29" value="no" style="ellipse;whiteSpace=wrap;html=1;rounded=0;" parent="1" vertex="1">
          <mxGeometry x="-23.5" y="780" width="50" height="60" as="geometry" />
        </mxCell>
        <mxCell id="3fxkVm-HvaguE0B5Jp1c-34" style="edgeStyle=orthogonalEdgeStyle;rounded=0;orthogonalLoop=1;jettySize=auto;html=1;exitX=0.5;exitY=0;exitDx=0;exitDy=0;entryX=1;entryY=0.25;entryDx=0;entryDy=0;" parent="1" source="3fxkVm-HvaguE0B5Jp1c-32" target="3fxkVm-HvaguE0B5Jp1c-18" edge="1">
          <mxGeometry relative="1" as="geometry" />
        </mxCell>
        <mxCell id="3fxkVm-HvaguE0B5Jp1c-32" value="Reinicio de contraseña&amp;nbsp;" style="rounded=0;whiteSpace=wrap;html=1;" parent="1" vertex="1">
          <mxGeometry x="-58.5" y="690" width="120" height="60" as="geometry" />
        </mxCell>
        <mxCell id="VHRG5s30MJtQ1BZnfx3q-6" style="edgeStyle=orthogonalEdgeStyle;rounded=0;orthogonalLoop=1;jettySize=auto;html=1;exitX=1;exitY=0.25;exitDx=0;exitDy=0;" edge="1" parent="1" source="3fxkVm-HvaguE0B5Jp1c-35">
          <mxGeometry relative="1" as="geometry">
            <mxPoint x="90" y="1165.5294117647059" as="targetPoint" />
          </mxGeometry>
        </mxCell>
        <mxCell id="VHRG5s30MJtQ1BZnfx3q-7" style="edgeStyle=orthogonalEdgeStyle;rounded=0;orthogonalLoop=1;jettySize=auto;html=1;exitX=1;exitY=0.5;exitDx=0;exitDy=0;" edge="1" parent="1" source="3fxkVm-HvaguE0B5Jp1c-35" target="VHRG5s30MJtQ1BZnfx3q-3">
          <mxGeometry relative="1" as="geometry" />
        </mxCell>
        <mxCell id="3fxkVm-HvaguE0B5Jp1c-35" value="Validar cantidad de QRSF" style="whiteSpace=wrap;html=1;rounded=0;" parent="1" vertex="1">
          <mxGeometry x="-37.5" y="1150" width="120" height="60" as="geometry" />
        </mxCell>
        <mxCell id="VHRG5s30MJtQ1BZnfx3q-10" style="edgeStyle=orthogonalEdgeStyle;rounded=0;orthogonalLoop=1;jettySize=auto;html=1;exitX=1;exitY=0.5;exitDx=0;exitDy=0;" edge="1" parent="1" source="3fxkVm-HvaguE0B5Jp1c-37" target="VHRG5s30MJtQ1BZnfx3q-4">
          <mxGeometry relative="1" as="geometry" />
        </mxCell>
        <mxCell id="VHRG5s30MJtQ1BZnfx3q-27" style="edgeStyle=orthogonalEdgeStyle;rounded=0;orthogonalLoop=1;jettySize=auto;html=1;exitX=1;exitY=0.75;exitDx=0;exitDy=0;entryX=0;entryY=0.5;entryDx=0;entryDy=0;" edge="1" parent="1" source="3fxkVm-HvaguE0B5Jp1c-37" target="VHRG5s30MJtQ1BZnfx3q-5">
          <mxGeometry relative="1" as="geometry" />
        </mxCell>
        <mxCell id="3fxkVm-HvaguE0B5Jp1c-37" value="Responder QRSF" style="rounded=0;whiteSpace=wrap;html=1;" parent="1" vertex="1">
          <mxGeometry x="-32.5" y="1270" width="120" height="60" as="geometry" />
        </mxCell>
        <mxCell id="VHRG5s30MJtQ1BZnfx3q-1" style="edgeStyle=orthogonalEdgeStyle;rounded=0;orthogonalLoop=1;jettySize=auto;html=1;exitX=0.25;exitY=0;exitDx=0;exitDy=0;entryX=0;entryY=0.25;entryDx=0;entryDy=0;" edge="1" parent="1" source="3fxkVm-HvaguE0B5Jp1c-40" target="3fxkVm-HvaguE0B5Jp1c-18">
          <mxGeometry relative="1" as="geometry" />
        </mxCell>
        <mxCell id="3fxkVm-HvaguE0B5Jp1c-40" value="Cerrar sesión" style="rounded=0;whiteSpace=wrap;html=1;" parent="1" vertex="1">
          <mxGeometry x="-307.5" y="1169" width="120" height="60" as="geometry" />
        </mxCell>
        <mxCell id="3fxkVm-HvaguE0B5Jp1c-47" value="Especifiqué" style="rhombus;whiteSpace=wrap;html=1;" parent="1" vertex="1">
          <mxGeometry x="-780" y="560" width="80" height="80" as="geometry" />
        </mxCell>
        <mxCell id="3fxkVm-HvaguE0B5Jp1c-65" value="" style="edgeStyle=orthogonalEdgeStyle;rounded=0;orthogonalLoop=1;jettySize=auto;html=1;" parent="1" source="3fxkVm-HvaguE0B5Jp1c-49" target="3fxkVm-HvaguE0B5Jp1c-64" edge="1">
          <mxGeometry relative="1" as="geometry" />
        </mxCell>
        <mxCell id="3fxkVm-HvaguE0B5Jp1c-49" value="Estudiantes, Profesor o Visitante" style="whiteSpace=wrap;html=1;" parent="1" vertex="1">
          <mxGeometry x="-1160" y="640" width="210" height="60" as="geometry" />
        </mxCell>
        <mxCell id="3fxkVm-HvaguE0B5Jp1c-54" style="edgeStyle=orthogonalEdgeStyle;rounded=0;orthogonalLoop=1;jettySize=auto;html=1;exitX=0.5;exitY=1;exitDx=0;exitDy=0;" parent="1" source="3fxkVm-HvaguE0B5Jp1c-50" target="3fxkVm-HvaguE0B5Jp1c-53" edge="1">
          <mxGeometry relative="1" as="geometry" />
        </mxCell>
        <mxCell id="3fxkVm-HvaguE0B5Jp1c-50" value="Anonimo" style="rounded=0;whiteSpace=wrap;html=1;" parent="1" vertex="1">
          <mxGeometry x="-620" y="640" width="230" height="60" as="geometry" />
        </mxCell>
        <mxCell id="3fxkVm-HvaguE0B5Jp1c-51" style="edgeStyle=orthogonalEdgeStyle;rounded=0;orthogonalLoop=1;jettySize=auto;html=1;exitX=0;exitY=0.5;exitDx=0;exitDy=0;entryX=0.429;entryY=0;entryDx=0;entryDy=0;entryPerimeter=0;" parent="1" source="3fxkVm-HvaguE0B5Jp1c-47" target="3fxkVm-HvaguE0B5Jp1c-49" edge="1">
          <mxGeometry relative="1" as="geometry" />
        </mxCell>
        <mxCell id="3fxkVm-HvaguE0B5Jp1c-52" style="edgeStyle=orthogonalEdgeStyle;rounded=0;orthogonalLoop=1;jettySize=auto;html=1;exitX=1;exitY=0.5;exitDx=0;exitDy=0;entryX=0.687;entryY=0;entryDx=0;entryDy=0;entryPerimeter=0;" parent="1" source="3fxkVm-HvaguE0B5Jp1c-47" target="3fxkVm-HvaguE0B5Jp1c-50" edge="1">
          <mxGeometry relative="1" as="geometry" />
        </mxCell>
        <mxCell id="3fxkVm-HvaguE0B5Jp1c-53" value="Requiere el ingreso de&amp;nbsp; almenos un dato de contacto para envio de respuesta" style="ellipse;whiteSpace=wrap;html=1;" parent="1" vertex="1">
          <mxGeometry x="-572.5" y="810" width="135" height="130" as="geometry" />
        </mxCell>
        <mxCell id="3fxkVm-HvaguE0B5Jp1c-60" style="edgeStyle=orthogonalEdgeStyle;rounded=0;orthogonalLoop=1;jettySize=auto;html=1;exitX=0.5;exitY=0;exitDx=0;exitDy=0;entryX=0;entryY=0.5;entryDx=0;entryDy=0;" parent="1" source="3fxkVm-HvaguE0B5Jp1c-57" target="3fxkVm-HvaguE0B5Jp1c-53" edge="1">
          <mxGeometry relative="1" as="geometry" />
        </mxCell>
        <mxCell id="3fxkVm-HvaguE0B5Jp1c-120" style="edgeStyle=orthogonalEdgeStyle;rounded=0;orthogonalLoop=1;jettySize=auto;html=1;exitX=0.5;exitY=1;exitDx=0;exitDy=0;entryX=0.75;entryY=0;entryDx=0;entryDy=0;" parent="1" source="3fxkVm-HvaguE0B5Jp1c-57" target="3fxkVm-HvaguE0B5Jp1c-75" edge="1">
          <mxGeometry relative="1" as="geometry" />
        </mxCell>
        <mxCell id="3fxkVm-HvaguE0B5Jp1c-57" value="Telefono" style="rounded=0;whiteSpace=wrap;html=1;" parent="1" vertex="1">
          <mxGeometry x="-740" y="1060" width="190" height="60" as="geometry" />
        </mxCell>
        <mxCell id="3fxkVm-HvaguE0B5Jp1c-59" style="edgeStyle=orthogonalEdgeStyle;rounded=0;orthogonalLoop=1;jettySize=auto;html=1;exitX=0.5;exitY=0;exitDx=0;exitDy=0;entryX=1;entryY=0.5;entryDx=0;entryDy=0;" parent="1" source="3fxkVm-HvaguE0B5Jp1c-58" target="3fxkVm-HvaguE0B5Jp1c-53" edge="1">
          <mxGeometry relative="1" as="geometry" />
        </mxCell>
        <mxCell id="3fxkVm-HvaguE0B5Jp1c-121" style="edgeStyle=orthogonalEdgeStyle;rounded=0;orthogonalLoop=1;jettySize=auto;html=1;exitX=0.5;exitY=1;exitDx=0;exitDy=0;entryX=0.25;entryY=0;entryDx=0;entryDy=0;" parent="1" source="3fxkVm-HvaguE0B5Jp1c-58" target="3fxkVm-HvaguE0B5Jp1c-75" edge="1">
          <mxGeometry relative="1" as="geometry" />
        </mxCell>
        <mxCell id="3fxkVm-HvaguE0B5Jp1c-58" value="Email" style="rounded=0;whiteSpace=wrap;html=1;" parent="1" vertex="1">
          <mxGeometry x="-470" y="1060" width="150" height="60" as="geometry" />
        </mxCell>
        <mxCell id="3fxkVm-HvaguE0B5Jp1c-64" value="Ingrese información del usuario" style="whiteSpace=wrap;html=1;" parent="1" vertex="1">
          <mxGeometry x="-1160" y="820" width="210" height="60" as="geometry" />
        </mxCell>
        <mxCell id="3fxkVm-HvaguE0B5Jp1c-85" style="edgeStyle=orthogonalEdgeStyle;rounded=0;orthogonalLoop=1;jettySize=auto;html=1;exitX=1;exitY=0.5;exitDx=0;exitDy=0;entryX=0;entryY=0.5;entryDx=0;entryDy=0;" parent="1" source="3fxkVm-HvaguE0B5Jp1c-72" target="3fxkVm-HvaguE0B5Jp1c-73" edge="1">
          <mxGeometry relative="1" as="geometry" />
        </mxCell>
        <mxCell id="3fxkVm-HvaguE0B5Jp1c-90" style="edgeStyle=orthogonalEdgeStyle;rounded=0;orthogonalLoop=1;jettySize=auto;html=1;exitX=0.5;exitY=1;exitDx=0;exitDy=0;entryX=0;entryY=0.75;entryDx=0;entryDy=0;" parent="1" source="3fxkVm-HvaguE0B5Jp1c-72" target="3fxkVm-HvaguE0B5Jp1c-75" edge="1">
          <mxGeometry relative="1" as="geometry" />
        </mxCell>
        <mxCell id="3fxkVm-HvaguE0B5Jp1c-72" value="Email" style="ellipse;whiteSpace=wrap;html=1;" parent="1" vertex="1">
          <mxGeometry x="-1480" y="940" width="120" height="80" as="geometry" />
        </mxCell>
        <mxCell id="3fxkVm-HvaguE0B5Jp1c-86" style="edgeStyle=orthogonalEdgeStyle;rounded=0;orthogonalLoop=1;jettySize=auto;html=1;exitX=1;exitY=0.5;exitDx=0;exitDy=0;entryX=0;entryY=0.5;entryDx=0;entryDy=0;" parent="1" source="3fxkVm-HvaguE0B5Jp1c-73" target="3fxkVm-HvaguE0B5Jp1c-74" edge="1">
          <mxGeometry relative="1" as="geometry" />
        </mxCell>
        <mxCell id="3fxkVm-HvaguE0B5Jp1c-73" value="Teléfono" style="ellipse;whiteSpace=wrap;html=1;" parent="1" vertex="1">
          <mxGeometry x="-1250" y="940" width="120" height="80" as="geometry" />
        </mxCell>
        <mxCell id="3fxkVm-HvaguE0B5Jp1c-88" style="edgeStyle=orthogonalEdgeStyle;rounded=0;orthogonalLoop=1;jettySize=auto;html=1;exitX=0.5;exitY=1;exitDx=0;exitDy=0;entryX=1;entryY=0.5;entryDx=0;entryDy=0;" parent="1" source="3fxkVm-HvaguE0B5Jp1c-74" target="3fxkVm-HvaguE0B5Jp1c-75" edge="1">
          <mxGeometry relative="1" as="geometry" />
        </mxCell>
        <mxCell id="3fxkVm-HvaguE0B5Jp1c-74" value="Nombre" style="ellipse;whiteSpace=wrap;html=1;" parent="1" vertex="1">
          <mxGeometry x="-1040" y="940" width="120" height="80" as="geometry" />
        </mxCell>
        <mxCell id="3fxkVm-HvaguE0B5Jp1c-75" value="Aceptacion de datos" style="rounded=0;whiteSpace=wrap;html=1;" parent="1" vertex="1">
          <mxGeometry x="-1280" y="1270" width="207" height="60" as="geometry" />
        </mxCell>
        <mxCell id="3fxkVm-HvaguE0B5Jp1c-95" style="edgeStyle=orthogonalEdgeStyle;rounded=0;orthogonalLoop=1;jettySize=auto;html=1;exitX=1;exitY=0.25;exitDx=0;exitDy=0;" parent="1" source="3fxkVm-HvaguE0B5Jp1c-76" target="3fxkVm-HvaguE0B5Jp1c-81" edge="1">
          <mxGeometry relative="1" as="geometry" />
        </mxCell>
        <mxCell id="3fxkVm-HvaguE0B5Jp1c-96" style="edgeStyle=orthogonalEdgeStyle;rounded=0;orthogonalLoop=1;jettySize=auto;html=1;exitX=1;exitY=0.75;exitDx=0;exitDy=0;" parent="1" source="3fxkVm-HvaguE0B5Jp1c-76" target="3fxkVm-HvaguE0B5Jp1c-80" edge="1">
          <mxGeometry relative="1" as="geometry" />
        </mxCell>
        <mxCell id="3fxkVm-HvaguE0B5Jp1c-97" style="edgeStyle=orthogonalEdgeStyle;rounded=0;orthogonalLoop=1;jettySize=auto;html=1;exitX=0.75;exitY=1;exitDx=0;exitDy=0;" parent="1" source="3fxkVm-HvaguE0B5Jp1c-76" target="3fxkVm-HvaguE0B5Jp1c-79" edge="1">
          <mxGeometry relative="1" as="geometry" />
        </mxCell>
        <mxCell id="3fxkVm-HvaguE0B5Jp1c-98" style="edgeStyle=orthogonalEdgeStyle;rounded=0;orthogonalLoop=1;jettySize=auto;html=1;exitX=0.25;exitY=1;exitDx=0;exitDy=0;entryX=0.5;entryY=0;entryDx=0;entryDy=0;" parent="1" source="3fxkVm-HvaguE0B5Jp1c-76" target="3fxkVm-HvaguE0B5Jp1c-78" edge="1">
          <mxGeometry relative="1" as="geometry" />
        </mxCell>
        <mxCell id="3fxkVm-HvaguE0B5Jp1c-76" value="Elija que desea realizar" style="rounded=0;whiteSpace=wrap;html=1;" parent="1" vertex="1">
          <mxGeometry x="-1250" y="1510" width="180" height="60" as="geometry" />
        </mxCell>
        <mxCell id="3fxkVm-HvaguE0B5Jp1c-113" style="edgeStyle=orthogonalEdgeStyle;rounded=0;orthogonalLoop=1;jettySize=auto;html=1;exitX=0.5;exitY=1;exitDx=0;exitDy=0;entryX=0;entryY=0.75;entryDx=0;entryDy=0;" parent="1" source="3fxkVm-HvaguE0B5Jp1c-77" target="3fxkVm-HvaguE0B5Jp1c-108" edge="1">
          <mxGeometry relative="1" as="geometry" />
        </mxCell>
        <mxCell id="3fxkVm-HvaguE0B5Jp1c-77" value="Petición" style="ellipse;whiteSpace=wrap;html=1;" parent="1" vertex="1">
          <mxGeometry x="-1550" y="1730" width="120" height="80" as="geometry" />
        </mxCell>
        <mxCell id="3fxkVm-HvaguE0B5Jp1c-78" value="Queja" style="ellipse;whiteSpace=wrap;html=1;" parent="1" vertex="1">
          <mxGeometry x="-1350" y="1730" width="120" height="80" as="geometry" />
        </mxCell>
        <mxCell id="3fxkVm-HvaguE0B5Jp1c-111" value="" style="edgeStyle=orthogonalEdgeStyle;rounded=0;orthogonalLoop=1;jettySize=auto;html=1;" parent="1" source="3fxkVm-HvaguE0B5Jp1c-79" target="3fxkVm-HvaguE0B5Jp1c-108" edge="1">
          <mxGeometry relative="1" as="geometry" />
        </mxCell>
        <mxCell id="3fxkVm-HvaguE0B5Jp1c-79" value="Reclamo" style="ellipse;whiteSpace=wrap;html=1;" parent="1" vertex="1">
          <mxGeometry x="-1150" y="1730" width="120" height="80" as="geometry" />
        </mxCell>
        <mxCell id="3fxkVm-HvaguE0B5Jp1c-110" style="edgeStyle=orthogonalEdgeStyle;rounded=0;orthogonalLoop=1;jettySize=auto;html=1;exitX=0.5;exitY=1;exitDx=0;exitDy=0;entryX=1;entryY=0.25;entryDx=0;entryDy=0;" parent="1" source="3fxkVm-HvaguE0B5Jp1c-80" target="3fxkVm-HvaguE0B5Jp1c-108" edge="1">
          <mxGeometry relative="1" as="geometry" />
        </mxCell>
        <mxCell id="3fxkVm-HvaguE0B5Jp1c-80" value="Solicitud" style="ellipse;whiteSpace=wrap;html=1;" parent="1" vertex="1">
          <mxGeometry x="-960" y="1740" width="120" height="80" as="geometry" />
        </mxCell>
        <mxCell id="3fxkVm-HvaguE0B5Jp1c-109" style="edgeStyle=orthogonalEdgeStyle;rounded=0;orthogonalLoop=1;jettySize=auto;html=1;exitX=0.5;exitY=1;exitDx=0;exitDy=0;entryX=1;entryY=0.75;entryDx=0;entryDy=0;" parent="1" source="3fxkVm-HvaguE0B5Jp1c-81" target="3fxkVm-HvaguE0B5Jp1c-108" edge="1">
          <mxGeometry relative="1" as="geometry" />
        </mxCell>
        <mxCell id="3fxkVm-HvaguE0B5Jp1c-81" value="Felicitaciones" style="ellipse;whiteSpace=wrap;html=1;" parent="1" vertex="1">
          <mxGeometry x="-770" y="1740" width="120" height="80" as="geometry" />
        </mxCell>
        <mxCell id="3fxkVm-HvaguE0B5Jp1c-82" style="edgeStyle=orthogonalEdgeStyle;rounded=0;orthogonalLoop=1;jettySize=auto;html=1;exitX=1;exitY=0.5;exitDx=0;exitDy=0;entryX=1.019;entryY=0.688;entryDx=0;entryDy=0;entryPerimeter=0;" parent="1" source="3fxkVm-HvaguE0B5Jp1c-64" target="3fxkVm-HvaguE0B5Jp1c-74" edge="1">
          <mxGeometry relative="1" as="geometry" />
        </mxCell>
        <mxCell id="3fxkVm-HvaguE0B5Jp1c-84" style="edgeStyle=orthogonalEdgeStyle;rounded=0;orthogonalLoop=1;jettySize=auto;html=1;exitX=0;exitY=0.5;exitDx=0;exitDy=0;entryX=0.422;entryY=-0.021;entryDx=0;entryDy=0;entryPerimeter=0;" parent="1" source="3fxkVm-HvaguE0B5Jp1c-64" target="3fxkVm-HvaguE0B5Jp1c-72" edge="1">
          <mxGeometry relative="1" as="geometry" />
        </mxCell>
        <mxCell id="3fxkVm-HvaguE0B5Jp1c-87" style="edgeStyle=orthogonalEdgeStyle;rounded=0;orthogonalLoop=1;jettySize=auto;html=1;exitX=0;exitY=1;exitDx=0;exitDy=0;entryX=0.756;entryY=0.125;entryDx=0;entryDy=0;entryPerimeter=0;" parent="1" source="3fxkVm-HvaguE0B5Jp1c-64" target="3fxkVm-HvaguE0B5Jp1c-73" edge="1">
          <mxGeometry relative="1" as="geometry" />
        </mxCell>
        <mxCell id="3fxkVm-HvaguE0B5Jp1c-93" style="edgeStyle=orthogonalEdgeStyle;rounded=0;orthogonalLoop=1;jettySize=auto;html=1;exitX=0.5;exitY=1;exitDx=0;exitDy=0;entryX=0.438;entryY=-0.028;entryDx=0;entryDy=0;entryPerimeter=0;" parent="1" source="3fxkVm-HvaguE0B5Jp1c-73" target="3fxkVm-HvaguE0B5Jp1c-75" edge="1">
          <mxGeometry relative="1" as="geometry" />
        </mxCell>
        <mxCell id="3fxkVm-HvaguE0B5Jp1c-99" style="edgeStyle=orthogonalEdgeStyle;rounded=0;orthogonalLoop=1;jettySize=auto;html=1;exitX=0;exitY=0.5;exitDx=0;exitDy=0;entryX=0.422;entryY=0;entryDx=0;entryDy=0;entryPerimeter=0;" parent="1" source="3fxkVm-HvaguE0B5Jp1c-76" target="3fxkVm-HvaguE0B5Jp1c-77" edge="1">
          <mxGeometry relative="1" as="geometry" />
        </mxCell>
        <mxCell id="VHRG5s30MJtQ1BZnfx3q-17" style="edgeStyle=orthogonalEdgeStyle;rounded=0;orthogonalLoop=1;jettySize=auto;html=1;exitX=1;exitY=0.5;exitDx=0;exitDy=0;entryX=0.5;entryY=0;entryDx=0;entryDy=0;" edge="1" parent="1" source="3fxkVm-HvaguE0B5Jp1c-100" target="xO5HqOzAjp3Nkayri61w-6">
          <mxGeometry relative="1" as="geometry" />
        </mxCell>
        <mxCell id="3fxkVm-HvaguE0B5Jp1c-100" value="Enviar" style="rounded=0;whiteSpace=wrap;html=1;" parent="1" vertex="1">
          <mxGeometry x="-1480" y="2070" width="120" height="60" as="geometry" />
        </mxCell>
        <mxCell id="VHRG5s30MJtQ1BZnfx3q-25" style="edgeStyle=orthogonalEdgeStyle;rounded=0;orthogonalLoop=1;jettySize=auto;html=1;exitX=0.75;exitY=0;exitDx=0;exitDy=0;entryX=1;entryY=0;entryDx=0;entryDy=0;" edge="1" parent="1" source="3fxkVm-HvaguE0B5Jp1c-101" target="3fxkVm-HvaguE0B5Jp1c-76">
          <mxGeometry relative="1" as="geometry" />
        </mxCell>
        <mxCell id="3fxkVm-HvaguE0B5Jp1c-101" value="Reiniciar" style="rounded=0;whiteSpace=wrap;html=1;" parent="1" vertex="1">
          <mxGeometry x="-580" y="2060" width="120" height="60" as="geometry" />
        </mxCell>
        <mxCell id="3fxkVm-HvaguE0B5Jp1c-114" style="edgeStyle=orthogonalEdgeStyle;rounded=0;orthogonalLoop=1;jettySize=auto;html=1;exitX=0.75;exitY=1;exitDx=0;exitDy=0;entryX=0.5;entryY=0;entryDx=0;entryDy=0;" parent="1" source="3fxkVm-HvaguE0B5Jp1c-108" target="3fxkVm-HvaguE0B5Jp1c-101" edge="1">
          <mxGeometry relative="1" as="geometry" />
        </mxCell>
        <mxCell id="3fxkVm-HvaguE0B5Jp1c-115" style="edgeStyle=orthogonalEdgeStyle;rounded=0;orthogonalLoop=1;jettySize=auto;html=1;exitX=0.25;exitY=1;exitDx=0;exitDy=0;entryX=0.5;entryY=0;entryDx=0;entryDy=0;" parent="1" source="3fxkVm-HvaguE0B5Jp1c-108" target="3fxkVm-HvaguE0B5Jp1c-100" edge="1">
          <mxGeometry relative="1" as="geometry" />
        </mxCell>
        <mxCell id="3fxkVm-HvaguE0B5Jp1c-108" value="ingrese los detalles de su PQRSF" style="rounded=0;whiteSpace=wrap;html=1;" parent="1" vertex="1">
          <mxGeometry x="-1220" y="1920" width="120" height="60" as="geometry" />
        </mxCell>
        <mxCell id="3fxkVm-HvaguE0B5Jp1c-112" style="edgeStyle=orthogonalEdgeStyle;rounded=0;orthogonalLoop=1;jettySize=auto;html=1;exitX=0.5;exitY=1;exitDx=0;exitDy=0;entryX=0.353;entryY=0;entryDx=0;entryDy=0;entryPerimeter=0;" parent="1" source="3fxkVm-HvaguE0B5Jp1c-78" target="3fxkVm-HvaguE0B5Jp1c-108" edge="1">
          <mxGeometry relative="1" as="geometry" />
        </mxCell>
        <mxCell id="3fxkVm-HvaguE0B5Jp1c-119" style="edgeStyle=orthogonalEdgeStyle;rounded=0;orthogonalLoop=1;jettySize=auto;html=1;exitX=0.25;exitY=1;exitDx=0;exitDy=0;entryX=0.117;entryY=0.083;entryDx=0;entryDy=0;entryPerimeter=0;" parent="1" source="3fxkVm-HvaguE0B5Jp1c-75" target="3fxkVm-HvaguE0B5Jp1c-76" edge="1">
          <mxGeometry relative="1" as="geometry" />
        </mxCell>
        <mxCell id="VHRG5s30MJtQ1BZnfx3q-2" style="edgeStyle=orthogonalEdgeStyle;rounded=0;orthogonalLoop=1;jettySize=auto;html=1;exitX=1;exitY=0.5;exitDx=0;exitDy=0;entryX=1;entryY=0;entryDx=0;entryDy=0;" edge="1" parent="1" source="xO5HqOzAjp3Nkayri61w-1" target="3fxkVm-HvaguE0B5Jp1c-22">
          <mxGeometry relative="1" as="geometry" />
        </mxCell>
        <mxCell id="xO5HqOzAjp3Nkayri61w-1" value="Finalizar tarea" style="rounded=1;whiteSpace=wrap;html=1;" parent="1" vertex="1">
          <mxGeometry x="310" y="1510" width="120" height="60" as="geometry" />
        </mxCell>
        <mxCell id="xO5HqOzAjp3Nkayri61w-6" value="Salir" style="rounded=0;whiteSpace=wrap;html=1;" parent="1" vertex="1">
          <mxGeometry x="-1200" y="2150" width="120" height="60" as="geometry" />
        </mxCell>
        <mxCell id="VHRG5s30MJtQ1BZnfx3q-12" style="edgeStyle=orthogonalEdgeStyle;rounded=0;orthogonalLoop=1;jettySize=auto;html=1;exitX=1;exitY=0.25;exitDx=0;exitDy=0;" edge="1" parent="1" source="VHRG5s30MJtQ1BZnfx3q-3" target="xO5HqOzAjp3Nkayri61w-1">
          <mxGeometry relative="1" as="geometry" />
        </mxCell>
        <mxCell id="VHRG5s30MJtQ1BZnfx3q-3" value="Muestra&amp;nbsp; la cantidad&amp;nbsp; de&amp;nbsp; QRSF&amp;nbsp;" style="rounded=0;whiteSpace=wrap;html=1;" vertex="1" parent="1">
          <mxGeometry x="160" y="1150" width="120" height="60" as="geometry" />
        </mxCell>
        <mxCell id="VHRG5s30MJtQ1BZnfx3q-13" style="edgeStyle=orthogonalEdgeStyle;rounded=0;orthogonalLoop=1;jettySize=auto;html=1;exitX=1;exitY=0.5;exitDx=0;exitDy=0;entryX=0.25;entryY=0;entryDx=0;entryDy=0;" edge="1" parent="1" source="VHRG5s30MJtQ1BZnfx3q-4" target="xO5HqOzAjp3Nkayri61w-1">
          <mxGeometry relative="1" as="geometry" />
        </mxCell>
        <mxCell id="VHRG5s30MJtQ1BZnfx3q-4" value="Muestra las PQRSF Que necesitan respuestas" style="rounded=0;whiteSpace=wrap;html=1;" vertex="1" parent="1">
          <mxGeometry x="160" y="1270" width="120" height="60" as="geometry" />
        </mxCell>
        <mxCell id="VHRG5s30MJtQ1BZnfx3q-14" style="edgeStyle=orthogonalEdgeStyle;rounded=0;orthogonalLoop=1;jettySize=auto;html=1;exitX=1;exitY=0.5;exitDx=0;exitDy=0;entryX=0;entryY=0;entryDx=0;entryDy=0;" edge="1" parent="1" source="VHRG5s30MJtQ1BZnfx3q-5" target="xO5HqOzAjp3Nkayri61w-1">
          <mxGeometry relative="1" as="geometry" />
        </mxCell>
        <mxCell id="VHRG5s30MJtQ1BZnfx3q-5" value="Dala opción de eliminar PQRSF" style="rounded=0;whiteSpace=wrap;html=1;" vertex="1" parent="1">
          <mxGeometry x="160" y="1360" width="120" height="60" as="geometry" />
        </mxCell>
        <mxCell id="VHRG5s30MJtQ1BZnfx3q-23" style="edgeStyle=orthogonalEdgeStyle;rounded=0;orthogonalLoop=1;jettySize=auto;html=1;exitX=0.25;exitY=0;exitDx=0;exitDy=0;entryX=0;entryY=0.25;entryDx=0;entryDy=0;" edge="1" parent="1" source="VHRG5s30MJtQ1BZnfx3q-18" target="3fxkVm-HvaguE0B5Jp1c-76">
          <mxGeometry relative="1" as="geometry" />
        </mxCell>
        <mxCell id="VHRG5s30MJtQ1BZnfx3q-18" value="Crear otra QRSF" style="rounded=0;whiteSpace=wrap;html=1;" vertex="1" parent="1">
          <mxGeometry x="-1660" y="2230" width="120" height="60" as="geometry" />
        </mxCell>
        <mxCell id="VHRG5s30MJtQ1BZnfx3q-22" style="edgeStyle=orthogonalEdgeStyle;rounded=0;orthogonalLoop=1;jettySize=auto;html=1;exitX=0.5;exitY=1;exitDx=0;exitDy=0;entryX=0.129;entryY=1.043;entryDx=0;entryDy=0;entryPerimeter=0;" edge="1" parent="1" source="VHRG5s30MJtQ1BZnfx3q-18" target="3fxkVm-HvaguE0B5Jp1c-100">
          <mxGeometry relative="1" as="geometry" />
        </mxCell>
      </root>
    </mxGraphModel>
  </diagram>
</mxfile>
